<svg xmlns="http://www.w3.org/2000/svg" xml:space="preserve" viewBox="0 0 400 400"><path d="M140 280c0-38.417 31.402-69.672 70-69.672v-16.721c-23.159 0-42-18.753-42-41.803C168 128.752 186.841 110 210 110V0H100v400h110V280h-70z" style="fill:#dedde0"/><path d="M320 200V0H210v110c23.159 0 42 18.752 42 41.803 0 23.05-18.841 41.803-42 41.803v16.721c38.598 0 70 31.255 70 69.672h-70v120h110V200z" style="fill:#cdcdd0"/><path d="M60 0v35h20v30H60v70h20v30H60v70h20v30H60v70h20v30H60v35h40V0z" style="fill:#acabb1"/><path d="M320 0h40v100h-40z" style="fill:#ffda44"/><path d="M320 100h40v100h-40z" style="fill:#ff9811"/><path d="M320 200h40v100h-40z" style="fill:#ff5023"/><path d="M320 300h40v100h-40z" style="fill:#d80027"/><path d="M80 35H40v30h40zM80 335H40v30h40zM80 235H40v30h40zM80 135H40v30h40z" style="fill:#565659"/><path d="M168 151.803c0 23.05 18.841 41.803 42 41.803s42-18.753 42-41.803C252 128.752 233.159 110 210 110s-42 18.752-42 41.803zM140 280h140c0-38.417-31.402-69.672-70-69.672S140 241.583 140 280z" style="fill:#fff"/></svg>